<svg xmlns="http://www.w3.org/2000/svg" version="1.1" xmlns:xlink="http://www.w3.org/1999/xlink" xmlns:svgjs="http://svgjs.dev/svgjs" width="1000" height="1000" viewBox="0 0 1000 1000"><rect width="1000" height="1000" fill="#046380"></rect><g transform="matrix(0.7,0,0,0.7,149.91918960658944,281.42713020447354)"><svg viewBox="0 0 395 247" data-background-color="#046380" preserveAspectRatio="xMidYMid meet" height="625" width="1000" xmlns="http://www.w3.org/2000/svg" xmlns:xlink="http://www.w3.org/1999/xlink"><g id="tight-bounds" transform="matrix(1,0,0,1,0.04560048221091506,-0.0999973474172009)"><svg viewBox="0 0 394.90879120879123 247.2" height="247.2" width="394.90879120879123"><g><svg viewBox="0 0 394.90879120879123 247.2" height="247.2" width="394.90879120879123"><g><svg viewBox="0 0 394.90879120879123 247.2" height="247.2" width="394.90879120879123"><g id="textblocktransform"><svg viewBox="0 0 394.90879120879123 247.2" height="247.2" width="394.90879120879123" id="textblock"><g><svg viewBox="0 0 394.90879120879123 247.2" height="247.2" width="394.90879120879123"><g transform="matrix(1,0,0,1,0,0)"><svg width="394.90879120879123" viewBox="3.200000047683716 -35.54999923706055 56.779998779296875 35.54999923706055" height="247.2" data-palette-color="#ffffff"><path d="M10.06-13.28L15.26-13.28 21.95 0 29.3 0 29.3-0.32 21.66-14.99Q23.12-15.65 24.3-16.55 25.49-17.46 26.34-18.68L26.34-18.68Q27.17-19.87 27.62-21.4 28.08-22.92 28.08-24.83L28.08-24.83Q28.08-27.47 27.16-29.47 26.25-31.47 24.56-32.81L24.56-32.81Q22.85-34.16 20.46-34.85 18.07-35.55 15.11-35.55L15.11-35.55 3.2-35.55 3.2 0 10.06 0 10.06-13.28ZM15.14-18.85L10.06-18.85 10.06-29.98 15.11-29.98Q16.53-29.98 17.63-29.64 18.73-29.3 19.48-28.66L19.48-28.66Q20.34-27.95 20.76-26.87 21.19-25.78 21.19-24.37L21.19-24.37Q21.19-23.19 20.86-22.24 20.53-21.29 19.9-20.61L19.9-20.61Q19.14-19.75 17.93-19.3 16.72-18.85 15.14-18.85L15.14-18.85ZM40.01-7.42L50.68-7.42 52.76 0 59.98 0 48.56-35.55 42.33-35.55 30.69 0 37.91 0 40.01-7.42ZM49.07-13.26L41.7-13.26 45.43-26.34 49.07-13.26Z" opacity="1" transform="matrix(1,0,0,1,0,0)" fill="#ffffff" class="wordmark-text-0" data-fill-palette-color="primary" id="text-0"></path></svg></g></svg></g></svg></g></svg></g></svg></g><defs></defs></svg><rect width="394.90879120879123" height="247.2" fill="none" stroke="none" visibility="hidden"></rect></g></svg></g></svg>