<svg width="526" height="141" viewBox="0 0 526 141" fill="none" xmlns="http://www.w3.org/2000/svg">
    <g clip-path="url(#clip0_63_1578)">
        <path d="M71.471 26.814C77.8012 26.9813 84.1313 28.4869 89.7687 31.3069L95.5973 20.3137C89.0999 17.1591 82.292 15.1516 75.1258 14.4825C73.9553 14.3152 72.7848 14.3152 71.471 14.3152V26.814Z" fill="#F15A27"/>
        <path d="M98.6071 79.9161L109.428 84.0744C111.1 79.2469 111.936 74.0849 111.769 68.9228C111.769 68.2537 111.602 67.4173 111.602 66.5808L100.112 67.9191C100.446 72.0774 99.9447 76.0684 98.6071 79.9161Z" fill="#F15A27"/>
        <path d="M113.752 63.9281L126.078 62.4225C125.074 55.253 122.757 48.6093 119.246 42.4435C118.744 41.4398 118.075 40.4361 117.406 39.6235L107.254 46.6257C110.575 51.9551 112.748 57.7862 113.752 63.952V63.9281Z" fill="#F15A27"/>
        <path d="M110.933 87.0854C108.592 92.9166 104.937 98.0787 100.279 102.404L108.425 111.725C113.752 106.897 117.908 101.066 121.085 94.7329C121.587 93.7292 122.088 92.5582 122.423 91.5783L110.933 87.0854Z" fill="#F15A27"/>
        <path d="M12.5648 62.1118C13.7352 53.6279 16.8884 45.2874 21.7136 38.1418L11.8959 31.3069C6.73623 38.9782 3.24867 47.2948 1.40935 56.1133C1.07492 57.6189 0.907711 59.1006 0.573288 60.6062L12.5648 62.1118Z" fill="#F15A27"/>
        <path d="M55.3231 126.542C47.3448 124.367 39.5097 120.376 32.8451 114.712L24.3651 124.367C31.3641 130.365 39.1753 134.858 47.8225 137.845C49.3274 138.347 50.8084 138.849 52.3133 139.184L55.2993 126.518L55.3231 126.542Z" fill="#F15A27"/>
        <path d="M57.6641 43.6144C61.3189 41.9415 65.1647 40.9617 69.1539 40.7944V29.2993C63.9943 29.4666 59.169 30.4703 54.3438 32.4539C53.6749 32.7885 53.0061 33.123 52.17 33.4576L57.6641 43.6144Z" fill="#F15A27"/>
        <path d="M76.129 99.7278C72.3071 100.564 68.1507 100.397 64.3048 99.7278L61.4861 110.888C66.6458 112.059 71.8054 112.227 76.7979 111.39C77.4667 111.223 78.1356 111.056 78.8044 111.056L76.1529 99.7278H76.129Z" fill="#F15A27"/>
        <path d="M27.0405 66.27L14.7146 64.7644C14.0458 71.9339 14.5474 79.0795 16.5539 85.9144C16.8884 86.9181 17.2228 88.0892 17.5572 89.069L29.2142 84.7434C27.0405 78.7449 26.3955 72.4119 27.0405 66.27Z" fill="#F15A27"/>
        <path d="M42.3523 103.91L34.2067 113.23C39.7008 117.89 45.8637 121.379 52.6717 123.721C53.6749 124.056 54.8454 124.391 55.8248 124.725L58.8107 112.728C52.815 110.888 47.1537 107.901 42.3284 103.91H42.3523Z" fill="#4096B5"/>
        <path d="M104.268 8.65112L98.7743 19.3098C106.275 23.4681 112.916 29.2993 118.075 36.4688L127.893 29.6338C122.566 22.1298 116.069 15.9879 108.425 10.9932C107.087 10.1567 105.773 9.32028 104.268 8.65112Z" fill="#4096B5"/>
        <path d="M124.74 92.4148C121.587 100.397 116.427 107.734 110.097 113.565L118.075 122.551C124.74 116.385 130.234 109.072 134.056 100.899C134.725 99.5604 135.394 98.0787 135.895 96.5731L124.74 92.4148Z" fill="#4096B5"/>
        <path d="M94.2835 52.6239L103.767 46.1236C100.781 41.9652 96.935 38.3088 92.6113 35.6322C91.9425 35.2976 91.2736 34.963 90.772 34.4612L85.4451 44.7852C88.7655 46.7927 91.9425 49.4454 94.2596 52.6L94.2835 52.6239Z" fill="#4096B5"/>
        <path d="M97.771 82.0905C96.2661 85.747 93.949 89.0927 90.9392 91.9127L98.6071 100.564C102.429 97.0748 105.439 92.8926 107.589 88.2324C107.923 87.5633 108.258 86.8941 108.425 86.225L97.771 82.0667V82.0905Z" fill="#4096B5"/>
        <path d="M51.1667 31.3068C56.6608 28.4868 62.991 26.9812 69.13 26.8139V14.4824C61.9638 14.6497 55.1559 16.1553 48.6586 18.808C47.6553 19.3099 46.4848 19.8117 45.5054 20.3136L51.1667 31.3068Z" fill="#4096B5"/>
        <path d="M43.0211 81.9233L32.2002 86.0816C34.2067 90.9091 37.0254 95.2347 40.513 99.0584C41.0146 99.5603 41.5162 100.062 42.1851 100.564L49.8529 91.9128C47.0342 89.0928 44.6933 85.7471 43.0211 81.9233Z" fill="#4096B5"/>
        <path d="M83.1281 127.545C74.8152 129.385 65.9769 129.385 57.4969 127.545L54.6782 139.208C63.6598 141.215 72.6415 141.55 81.647 140.211C83.1519 140.044 84.4658 139.709 85.9707 139.375L83.1519 127.545H83.1281Z" fill="#4096B5"/>
        <path d="M46.6759 52.4566C49.0169 49.3021 52.0028 46.6254 55.4904 44.6419L50.1635 34.4851C45.6727 36.9944 41.6835 40.3163 38.5064 44.14C38.0048 44.6419 37.6704 45.311 37.1687 45.8129L46.652 52.4805L46.6759 52.4566Z" fill="#4096B5"/>
        <path d="M12.2303 64.4297L0.406073 62.948C-0.597197 72.101 0.238861 81.0868 2.74704 89.9292C3.08146 91.4348 3.58309 92.7492 4.25194 94.2548L15.4073 90.0965C12.4214 81.9472 11.4182 73.1048 12.2542 64.4536L12.2303 64.4297Z" fill="#4096B5"/>
        <path d="M27.2077 63.9278C28.211 57.7621 30.3608 51.7636 33.8723 46.6016L23.7202 39.5994C19.731 45.5978 17.0556 52.2655 15.5746 59.2438C15.4073 60.2475 15.2401 61.4185 15.0729 62.5656L27.2316 63.9039L27.2077 63.9278Z" fill="#4096B5"/>
        <path d="M128.395 62.279L140.219 60.7734C139.048 51.7877 136.062 43.1126 131.572 35.2979C130.903 33.9595 130.067 32.6451 129.063 31.4741L119.246 38.309C124.071 45.4785 127.224 53.6278 128.395 62.279Z" fill="white"/>
        <path d="M105.773 44.7854L115.925 37.7832C111.769 31.9521 106.609 26.9573 100.446 23.1336C99.4431 22.4644 98.4399 21.9626 97.4605 21.4607L91.632 32.4539C97.2933 35.4412 102.119 39.6234 105.773 44.7854Z" fill="white"/>
        <path d="M125.576 90.0727L136.731 94.3983C139.884 85.7471 141.222 76.9048 140.888 67.7517C140.888 66.2461 140.721 64.5971 140.553 63.0916L128.729 64.5971C129.565 73.081 128.395 81.9234 125.576 90.0727Z" fill="white"/>
        <path d="M44.3588 18.1388C52.0267 14.3151 60.5067 12.1403 69.1539 11.9731V0C60.1723 0.167288 51.334 2.00746 43.0212 5.49661C41.5162 6.16576 40.2024 6.83492 38.6975 7.50407L44.3588 18.1627V18.1388Z" fill="white"/>
        <path d="M71.471 40.7945C75.4602 40.9617 79.6166 41.9655 83.2953 43.6145L88.6221 33.4577C83.9641 31.1156 78.9716 29.8012 73.812 29.2994C72.9759 29.2994 72.1399 29.1321 71.471 29.1321V40.7945Z" fill="white"/>
        <path d="M89.291 93.5857C86.1379 96.095 82.4592 98.0786 78.47 99.2496L81.2887 110.41C86.2812 109.072 91.1065 106.754 95.2629 103.575C95.9317 103.073 96.4333 102.571 96.935 102.237L89.2671 93.5857H89.291Z" fill="white"/>
        <path d="M51.6684 93.4185L44.0005 102.07C47.9897 105.392 52.4806 107.901 57.3058 109.574C57.9747 109.741 58.6435 110.076 59.3124 110.243L62.1311 99.0824C58.3091 97.9113 54.6304 96.0951 51.6445 93.4185H51.6684Z" fill="white"/>
        <path d="M79.6405 113.23C73.6448 114.569 67.1474 114.569 61.1756 113.23L58.1896 125.227C65.1886 126.9 72.331 127.067 79.4972 125.896C80.5004 125.729 81.6709 125.562 82.6503 125.227L79.6644 113.23H79.6405Z" fill="white"/>
        <path d="M40.8474 67.9428L29.3576 66.6045C28.8559 71.7665 29.3576 76.9286 30.6953 81.9233C30.8625 82.5925 31.1969 83.2616 31.3641 83.9308L42.1851 79.7725C41.0146 75.9487 40.513 71.9577 40.8474 67.9428Z" fill="white"/>
        <path d="M30.0264 86.9182L18.3694 91.2438C21.0209 97.9114 24.8668 103.91 29.8592 109.072L32.3674 111.581L40.513 102.261C36.0222 98.1026 32.3674 92.7733 30.0264 86.9421V86.9182Z" fill="white"/>
        <path d="M173.886 114.806H176.48L170.452 101.194H168.01L162 114.806H164.556L165.873 111.656H172.55L173.886 114.806ZM166.712 109.672L169.211 103.722L171.73 109.672H166.712Z" fill="white"/>
        <path d="M192.99 114.806H202.453V112.667H195.47V101.194H192.99V114.806Z" fill="white"/>
        <path d="M211.661 112.686V108.933H218.109V106.853H211.661V103.314H218.929V101.194H209.18V114.806H219.196V112.686H211.661Z" fill="white"/>
        <path d="M235.794 112.083C234.936 112.589 234.001 112.783 233.047 112.783C230.223 112.783 228.22 110.761 228.22 108C228.22 105.181 230.223 103.217 233.066 103.217C234.497 103.217 235.699 103.703 236.748 104.772L238.312 103.217C237.053 101.758 235.184 101 232.951 101C228.773 101 225.721 103.936 225.721 108C225.721 112.064 228.773 115 232.913 115C234.802 115 236.748 114.417 238.141 113.269V107.844H235.794V112.083Z" fill="white"/>
        <path d="M256.178 114.806H258.773L252.744 101.194H250.302L244.293 114.806H246.849L248.165 111.656H254.843L256.178 114.806ZM249.005 109.672L251.504 103.722L254.022 109.672H249.005Z" fill="white"/>
        <path d="M265.241 114.806H274.703V112.667H267.721V101.194H265.241V114.806Z" fill="white"/>
        <path d="M282.892 114.806H285.372V103.333H289.798V101.194H278.466V103.333H282.892V114.806Z" fill="white"/>
        <path d="M298.909 112.686V108.933H305.357V106.853H298.909V103.314H306.178V101.194H296.429V114.806H306.445V112.686H298.909Z" fill="white"/>
        <path d="M320.105 115C322.298 115 324.168 114.203 325.408 112.725L323.806 111.169C322.833 112.258 321.631 112.783 320.238 112.783C317.472 112.783 315.469 110.8 315.469 108C315.469 105.2 317.472 103.217 320.238 103.217C321.631 103.217 322.833 103.742 323.806 104.811L325.408 103.275C324.168 101.797 322.298 101 320.124 101C316.022 101 312.969 103.936 312.969 108C312.969 112.064 316.022 115 320.105 115Z" fill="white"/>
        <path d="M341.941 101.194V106.814H335.034V101.194H332.554V114.806H335.034V108.972H341.941V114.806H344.421V101.194H341.941Z" fill="white"/>
        <path d="M368.992 115C371.186 115 373.056 114.203 374.296 112.725L372.693 111.169C371.72 112.258 370.518 112.783 369.126 112.783C366.359 112.783 364.356 110.8 364.356 108C364.356 105.2 366.359 103.217 369.126 103.217C370.518 103.217 371.72 103.742 372.693 104.811L374.296 103.275C373.056 101.797 371.186 101 369.011 101C364.909 101 361.857 103.936 361.857 108C361.857 112.064 364.909 115 368.992 115Z" fill="white"/>
        <path d="M387.401 115C391.541 115 394.593 112.044 394.593 108C394.593 103.956 391.541 101 387.401 101C383.261 101 380.208 103.975 380.208 108C380.208 112.025 383.261 115 387.401 115ZM387.401 112.783C384.711 112.783 382.707 110.781 382.707 108C382.707 105.219 384.711 103.217 387.401 103.217C390.091 103.217 392.094 105.219 392.094 108C392.094 110.781 390.091 112.783 387.401 112.783Z" fill="white"/>
        <path d="M416.605 114.806L416.586 101.194H414.545L409.336 110.217L404.033 101.194H401.991V114.806H404.357V105.9L408.745 113.25H409.852L414.24 105.783L414.259 114.806H416.605Z" fill="white"/>
        <path d="M430.476 101.194H424.982V114.806H427.462V110.878H430.476C433.987 110.878 436.162 109.031 436.162 106.036C436.162 103.022 433.987 101.194 430.476 101.194ZM430.362 108.739H427.462V103.333H430.362C432.537 103.333 433.662 104.325 433.662 106.036C433.662 107.747 432.537 108.739 430.362 108.739Z" fill="white"/>
        <path d="M452.734 114.806H455.329L449.3 101.194H446.858L440.848 114.806H443.405L444.721 111.656H451.399L452.734 114.806ZM445.561 109.672L448.06 103.722L450.578 109.672H445.561Z" fill="white"/>
        <path d="M471.202 101.194V110.411L463.838 101.194H461.797V114.806H464.258V105.589L471.622 114.806H473.663V101.194H471.202Z" fill="white"/>
        <path d="M493 101.194H490.558L486.609 107.825L482.698 101.194H480.046L485.292 110.042V114.806H487.773V110.003L493 101.194Z" fill="white"/>
        <path d="M201.618 68.9523V79.142H167.089C164.235 79.142 161.837 76.7431 161.837 73.8872V26.7771H172.022V68.7924H201.618V68.9523Z" fill="white"/>
        <path d="M220.572 36.9668V47.7962H248.729V57.9858H220.572V68.8152H250.967V79.0049H215.639C212.785 79.0049 210.387 76.606 210.387 73.7501V32.0319C210.387 29.176 212.785 26.7771 215.639 26.7771H250.967V36.9668H220.572Z" fill="white"/>
        <path d="M307.442 53.6679V66.3935C307.442 66.8733 307.282 67.1932 307.122 67.673C302.349 75.1439 293.922 79.9188 284.537 79.9188C269.739 79.9188 257.658 67.81 257.658 52.8682C257.658 37.9264 269.762 25.9775 284.537 25.9775C292.164 25.9775 299.335 29.3132 304.267 34.5679L296.8 41.5819C293.785 38.2463 289.469 36.0073 284.56 36.0073C275.334 36.0073 267.843 43.4782 267.843 52.7311C267.843 61.9841 275.311 69.6149 284.56 69.6149C289.652 69.6149 294.265 67.3759 297.279 63.7205V53.6907H307.464L307.442 53.6679Z" fill="white"/>
        <path d="M350.716 79.142L336.398 45.2374L321.92 79.142H310.456L331.785 29.1532C332.584 27.2341 334.32 26.1375 336.558 26.1375C338.636 26.1375 340.212 27.4169 341.011 29.1532L362.34 79.142H350.716Z" fill="white"/>
        <path d="M408.47 68.9523V79.142H373.941C371.086 79.142 368.689 76.7431 368.689 73.8872V26.7771H378.874V68.7924H408.47V68.9523Z" fill="white"/>
        <path d="M453.183 26.7771V79.142H442.838V26.7771H453.183Z" fill="#4096B5"/>
        <path d="M509.977 37.1267H492.644V79.1419H482.459V37.1267H465.127V26.937H510V37.1267H509.977Z" fill="#4096B5"/>
    </g>
    <defs>
        <clipPath id="clip0_63_1578">
            <rect width="526" height="141" fill="white"/>
        </clipPath>
    </defs>
</svg>
