<svg id="Layer_1" data-name="Layer 1" xmlns="http://www.w3.org/2000/svg" viewBox="0 0 1919 335.45"><defs><style>.cls-1{fill:#132940;}</style></defs><path class="cls-1" d="M140.94,114.4v11.41q0,15.41-5.57,25.88a36.83,36.83,0,0,1-16.46,15.93,86.14,86.14,0,0,1-23.75,7.69,180.79,180.79,0,0,1-30.66,2.26q-24.69,0-61-4.78V141.21q44.06,6.9,61.58,6.9,34.5,0,34.51-17.79V119.18q0-7.71-4.52-12.61t-18-4.91H56.8Q0,101.66,0,56.54V43.79q0-22.29,18.71-33T78.57,0q19.91,0,53.88,3.45V34.24Q92.1,29.46,77.24,29.46q-20.44,0-28.13,3.45t-7.7,11.68V56.8q0,13.55,22.82,13.54H84.94q30.25,0,43.13,11.15T140.94,114.4Z"/><path class="cls-1" d="M303.64,32.12H250.82V174.91h-41.4V32.12H156.33V2.65H303.64Z"/><path class="cls-1" d="M480.94,174.91H433.17l-45.12-67.68H368.93v67.68h-41.4V2.65H405q34,0,49.64,8.23T470.32,39V69.28q0,15.66-11.27,24.15t-28,10.62ZM429.72,61.05V48.84q0-9.56-5.71-13.14T404.5,32.12H368.93V79.89H404.5q14.6,0,19.91-3.85T429.72,61.05Z"/><path class="cls-1" d="M664.62,52.29v75.38q0,14.6-7.7,25a46.65,46.65,0,0,1-20.7,15.53,125.06,125.06,0,0,1-26,7.3,171.93,171.93,0,0,1-27.6,2.12,183.25,183.25,0,0,1-25.88-1.73,136.3,136.3,0,0,1-25.75-6.5A45.43,45.43,0,0,1,509.21,154q-8.1-10.62-8.1-26.28V52.29a45.7,45.7,0,0,1,20.31-38.75,75.6,75.6,0,0,1,20.3-8.63A118.45,118.45,0,0,1,563,.8Q572.24,0,582.6,0q10.6,0,20,.8A118.34,118.34,0,0,1,624,4.91a77.84,77.84,0,0,1,20.43,8.63A43.41,43.41,0,0,1,658.78,28.8Q664.62,38.74,664.62,52.29Zm-41.41,75.38V52q0-12.47-10.22-17.51t-30.12-5q-20.18,0-30.26,4.91T542.52,52v75.65a17.23,17.23,0,0,0,3.45,11,18.73,18.73,0,0,0,10,6.24,75.54,75.54,0,0,0,12.47,2.52,162.26,162.26,0,0,0,29.46,0,72.35,72.35,0,0,0,12.34-2.52,18,18,0,0,0,9.69-6.24A17.71,17.71,0,0,0,623.21,127.67Z"/><path class="cls-1" d="M860.23,174.91H818.3L735,55.47V174.91H698.06V2.65H740l83.34,117.59V2.65h36.89Z"/><path class="cls-1" d="M1051.07,166.42q-13.27,4.79-33.84,8a247.75,247.75,0,0,1-37.82,3.19,252.19,252.19,0,0,1-25.88-1.2,131.53,131.53,0,0,1-23.09-4.51,67.63,67.63,0,0,1-19.38-8.62,39,39,0,0,1-12.61-14.34q-4.77-9-4.78-21.23V56a49.54,49.54,0,0,1,5.58-23.88,45.09,45.09,0,0,1,14.07-16.19,78.45,78.45,0,0,1,20.43-9.69,115.8,115.8,0,0,1,23-5.05A217.34,217.34,0,0,1,979.94,0,426.54,426.54,0,0,1,1050,5.57V36.89q-31.59-7.42-70.07-7.43-44.87,0-44.86,26v69.28q0,13.27,12.61,18.31t36,5.05a108.17,108.17,0,0,0,27.86-4V104.05H983.39V77h67.68Z"/><path class="cls-1" d="M1283.31,174.91h-37.42V47.51h-.8l-43.53,127.4h-33.17l-44.86-127.4h-1.06v127.4h-38V2.65h58.93l42.47,123.16L1227.84,2.65h55.47Z"/><path class="cls-1" d="M1361.88,174.91h-41.41V2.65h41.41Z"/><path class="cls-1" d="M1561.21,174.91h-41.94L1435.93,55.47V174.91H1399V2.65H1441l83.34,117.59V2.65h36.9Z"/><path class="cls-1" d="M1753.37,54.94V125q0,29.2-18,39.55t-63.44,10.35h-73.52V2.65h73.25q43.8,0,62.78,10.89T1753.37,54.94ZM1712,125V54.15q0-12.48-10.09-17.26t-30.52-4.77h-31.59V145.45H1670q23.9,0,32.91-3.58T1712,125Z"/><path class="cls-1" d="M1919,114.4v11.41q0,15.41-5.58,25.88A36.76,36.76,0,0,1,1897,167.62a86.21,86.21,0,0,1-23.76,7.69,180.62,180.62,0,0,1-30.66,2.26q-24.67,0-61-4.78V141.21q44.06,6.9,61.58,6.9,34.5,0,34.5-17.79V119.18q0-7.71-4.51-12.61t-18-4.91h-20.17q-56.8,0-56.81-45.12V43.79q0-22.29,18.72-33T1856.62,0q19.91,0,53.88,3.45V34.24q-40.35-4.79-55.21-4.78-20.43,0-28.13,3.45t-7.7,11.68V56.8q0,13.55,22.83,13.54H1863q30.26,0,43.13,11.15T1919,114.4Z"/><path class="cls-1" d="M619.79,273l-36.9,62.4H594.7l7.91-13.24h47.23l8,13.24h11.84L631.73,273ZM644,313.49H607.71l18.17-30.42Z"/><polygon class="cls-1" points="694.39 282.11 725.28 282.11 725.28 335.43 735.69 335.43 735.69 282.11 766.04 282.11 766.04 273.03 694.39 273.03 694.39 282.11"/><path class="cls-1" d="M850,303.19c2.53-3.6,1.68-18.69-.16-22.11-4.47-8.07-16.2-8-20.09-8.05l-.28,1.25h0V273H781.16v62.4h10.41V311.65h35.71l1.72,0c3.52-.09,8.34-.2,10.53,2.05,1.79,1.8,1.74,8.56,1.72,11.8v10h10.32l0-12.16c.06-6.3.12-12.31-6.94-15.67A10.41,10.41,0,0,0,850,303.19Zm-9.67-4.08c-2.31,3.6-7,3.58-13.4,3.54h-35.4V282.11h37c3.57,0,9.57-.1,11.78,3.77C841.39,287.46,841.61,297.23,840.37,299.11Z"/><rect class="cls-1" x="870.69" y="273.03" width="10.33" height="62.39"/><polygon class="cls-1" points="899.89 335.43 910.29 335.43 910.29 307.61 959.86 307.61 959.86 298.83 910.29 298.83 910.29 282.11 962.01 282.11 962.01 273.03 899.89 273.03 899.89 335.43"/><path class="cls-1" d="M1029.94,273H1000c-7.09,0-12.74.53-17.28,3.08-8.07,4.46-8,12.83-8,20.92v14.09c0,6.09,0,14.44,5.53,19.92,4.22,4,12.31,4.41,17,4.41l1.57,0h31.13c4.49,0,15,0,20.14-4.84s5.08-15.66,5.08-19.22V295.91c0-5.8,0-12.39-5.53-17.66S1035.93,273,1029.94,273Zm-44.89,21.21c-.06-5.29-.11-9.48,6.15-11.52a18.23,18.23,0,0,1,5.88-.64H999l2.53,0h26.19c3.76,0,11.62-.08,14.43,2.65s2.7,7.21,2.7,13v11c0,6.92-.2,12-2.79,14.6-3,3-9.29,3-14.28,3h-26.22c-4.28.05-10.21.09-13.31-2.8-3.19-3.05-3.17-8.69-3.15-13.66V294.24Z"/><path class="cls-1" d="M1141.94,303.19c2.52-3.6,1.68-18.69-.16-22.11-4.47-8.07-16.17-8-20.09-8.05l-.29,1.25h0V273h-48.35v62.4h10.41V311.65h35.71l1.73,0c3.51-.09,8.33-.2,10.53,2.05,1.79,1.8,1.74,8.56,1.71,11.8v10h10.33V323.27c.06-6.3.12-12.31-6.93-15.67A10.45,10.45,0,0,0,1141.94,303.19Zm-9.68-4.08c-2.3,3.6-6.93,3.58-13.4,3.54h-35.4V282.11h37c3.55,0,9.56-.1,11.77,3.77C1133.29,287.46,1133.51,297.23,1132.26,299.11Z"/><polygon class="cls-1" points="1238.33 273.03 1220.57 273.03 1182.15 298.61 1173.4 298.61 1173.4 273.03 1163.07 273.03 1163.07 335.43 1173.4 335.43 1173.4 307.61 1181.69 307.61 1223.87 335.43 1242.2 335.43 1193.61 303.07 1238.33 273.03"/><path class="cls-1" d="M1343.17,312.07h-10v1.85c0,3.37,0,6.87-1,8.63-2.1,3.51-6.89,3.8-11.23,3.8h-25.42c-3.43,0-11.46.12-14.51-2.72-2.86-2.79-2.85-7.53-2.85-13.55v-13.6c0-3.76-.09-8.9,2.65-11.69s8.09-2.72,13.36-2.7h27.55c3.85,0,6.82.39,8.82,2.34.92.9,2,3.24,2,9.26v1.48H1342l0-1.2c.22-6.65-.39-11-1.9-13.44-4.54-7-13.22-7.28-18.4-7.47l-27.63-.05c-7.87,0-15.83,0-21.36,5.3-5,5-5,12.9-5,18.11V309.8c0,7.56.42,15.37,5.44,20.34s12,5.31,17.74,5.31h30c7.14,0,13.93-.4,18.5-5.25,3.89-4.08,3.79-11.32,3.74-15.65Z"/><path class="cls-1" d="M1414.82,273h-29.91c-7.09,0-12.74.53-17.28,3.08-8.07,4.46-8.05,12.83-8,20.92v14.09c0,6.09,0,14.44,5.53,19.92,4.22,4,12.31,4.41,17,4.41l1.57,0h31.13c4.49,0,15,0,20.14-4.84s5.08-15.66,5.08-19.22V295.91c0-5.8,0-12.39-5.53-17.66S1420.82,273,1414.82,273Zm-44.89,21.21c-.06-5.29-.11-9.48,6.15-11.52a18.2,18.2,0,0,1,5.87-.64h1.89l2.53,0h26.19c3.75,0,11.62-.08,14.43,2.65s2.69,7.21,2.69,13v11c0,6.92-.19,12-2.78,14.6-3,3-9.3,3-14.29,3H1386.4c-4.3.05-10.21.09-13.31-2.8-3.19-3.05-3.17-8.69-3.15-13.66V294.24Z"/><polygon class="cls-1" points="1507.51 322.17 1472.42 273.03 1457.93 273.03 1457.93 335.43 1468.34 335.43 1468.34 285.81 1504.41 335.43 1511.22 335.43 1546.6 285.59 1546.6 335.43 1557.01 335.43 1557.01 273.03 1542.68 273.03 1507.51 322.17"/><path class="cls-1" d="M1625.24,273h-47.5v62.4h10.41V312h38.35c6.34.06,14.25.14,18.71-7,2.72-4.38,2.18-20.73-.23-24.93C1640.7,273,1629.86,273,1625.24,273Zm10.47,26.4c-2.1,3.44-7.94,3.41-12.64,3.37h-34.92V282.11h33.94c3.51,0,11.73-.13,13.75,3.34C1636.92,287.36,1637.05,297.31,1635.71,299.43Z"/><path class="cls-1" d="M1688.65,273l-36.9,62.4h11.8l7.92-13.24h47.23l8,13.24h11.83L1700.58,273Zm24.18,40.46h-36.26l18.16-30.42Z"/><polygon class="cls-1" points="1815.85 324.25 1761.8 273.03 1748 273.03 1748 335.43 1758.41 335.43 1758.41 284.43 1812.29 335.43 1826.18 335.43 1826.18 273.03 1815.85 273.03 1815.85 324.25"/><polygon class="cls-1" points="1904.89 273.03 1877.81 300.27 1849.83 273.03 1835.6 273.03 1872.51 309.5 1872.51 335.43 1882.91 335.43 1882.91 309.49 1919 273.03 1904.89 273.03"/></svg>